<?xml version="1.0"?>
<svg xmlns="http://www.w3.org/2000/svg" xmlns:xlink="http://www.w3.org/1999/xlink" xmlns:svgjs="http://svgjs.com/svgjs" version="1.1" width="512" height="512" x="0" y="0" viewBox="0 0 74 74" style="enable-background:new 0 0 512 512" xml:space="preserve" class=""><g><path xmlns="http://www.w3.org/2000/svg" d="M37,72a.994.994,0,0,1-.648-.239c-1.345-1.146-32.937-28.3-34.3-47.861A20.207,20.207,0,0,1,7.527,8.582,20.435,20.435,0,0,1,22.366,2,19.625,19.625,0,0,1,37,8.714,19.625,19.625,0,0,1,51.634,2,20.435,20.435,0,0,1,66.473,8.582,20.207,20.207,0,0,1,71.951,23.9h0c-1.366,19.565-32.958,46.715-34.3,47.861A.994.994,0,0,1,37,72ZM22.366,4A18.428,18.428,0,0,0,8.99,9.946,18.218,18.218,0,0,0,4.045,23.761C5.248,41,32.424,65.64,37,69.673,41.576,65.64,68.752,41,69.955,23.76h0A18.218,18.218,0,0,0,65.01,9.946,18.428,18.428,0,0,0,51.634,4a17.742,17.742,0,0,0-13.852,6.888,1.036,1.036,0,0,1-1.564,0A17.742,17.742,0,0,0,22.366,4ZM70.953,23.83h0Z" fill="#b82e3e" data-original="#000000" style="" class=""/><path xmlns="http://www.w3.org/2000/svg" d="M39.832,46.264H34.17a2.121,2.121,0,0,1-2.119-2.119v-6a8.886,8.886,0,0,1-3.884-7.122,8.835,8.835,0,1,1,17.668-.188,8.891,8.891,0,0,1-3.884,7.309v6A2.121,2.121,0,0,1,39.832,46.264ZM37.01,24h-.126a6.938,6.938,0,0,0-6.717,6.98,6.87,6.87,0,0,0,3.39,5.75,1,1,0,0,1,.494.863v6.551a.122.122,0,0,0,.119.119h5.662a.122.122,0,0,0,.119-.119V37.594a1,1,0,0,1,.492-.861A6.831,6.831,0,0,0,37.01,24Z" fill="#b82e3e" data-original="#000000" style="" class=""/></g></svg>
