<svg width="63" height="72" viewBox="0 0 63 72" fill="none" xmlns="http://www.w3.org/2000/svg">
<path d="M63 18.271V43.694C63 53.7844 54.6885 61.9651 44.4367 61.9651H42.5591L32.9708 71.3963C32.5953 71.7659 32.0758 72 31.5 72C30.968 72 30.4861 71.809 30.1168 71.4887L29.9541 71.3285L29.9478 71.3224L20.4409 61.9651H18.557C8.31154 61.9651 0 53.7844 0 43.694V18.271C0 8.1807 8.31154 0 18.5633 0H44.4367C54.6885 0 63 8.1807 63 18.271Z" fill="#B82E3E"/>
<path d="M48.715 46C50.5842 46 51.6495 44.4298 50.565 43.296C46.3482 38.8795 39.3754 36 31.4968 36C23.6182 36 16.6518 38.8842 12.435 43.296C11.3505 44.4298 12.4158 46 14.285 46L48.715 46Z" fill="white"/>
<path d="M25.1432 26.9483H13.9404V21.4742C13.9404 18.4522 16.4497 16 19.5418 16C22.634 16 25.1432 18.4522 25.1432 21.4742V26.9483Z" fill="white"/>
<path d="M48.803 26.9483H37.6002V21.4742C37.6002 18.4522 40.1094 16 43.2016 16C46.2937 16 48.803 18.4522 48.803 21.4742V26.9483Z" fill="white"/>
</svg>
